<svg xmlns="http://www.w3.org/2000/svg" viewBox="0 0 640 220" role="img" aria-label="Block cipher operation">
  <text x="20" y="24" font-size="12" font-weight="600" fill="#3d4a5c">Plaintext (blocks)</text>
  <rect x="20" y="36" width="72" height="40" rx="4" fill="none" stroke="#3d4a5c" stroke-width="1.5"/>
  <rect x="100" y="36" width="72" height="40" rx="4" fill="none" stroke="#3d4a5c" stroke-width="1.5"/>
  <rect x="180" y="36" width="72" height="40" rx="4" fill="none" stroke="#3d4a5c" stroke-width="1.5"/>
  <text x="38" y="62" font-size="9" fill="#3d4a5c">PĀ</text>
  <text x="118" y="62" font-size="9" fill="#3d4a5c">Pā</text>
  <text x="198" y="62" font-size="9" fill="#3d4a5c">PÉ</text>
  <rect x="300" y="28" width="100" height="56" rx="6" fill="none" stroke="#3d4a5c" stroke-width="2"/>
  <text x="318" y="52" font-size="10" font-weight="600" fill="#3d4a5c">Cipher E</text>
  <text x="312" y="68" font-size="8" fill="#3d4a5c" opacity="0.8">+ key K</text>
  <path d="M252 56 H300 M252 56 l8-6 M252 56 l8 6" stroke="#3d4a5c" stroke-width="1.2" fill="none"/>
  <text x="20" y="120" font-size="12" font-weight="600" fill="#3d4a5c">Ciphertext (blocks)</text>
  <rect x="420" y="36" width="72" height="40" rx="4" fill="none" stroke="#3d4a5c" stroke-width="1.5"/>
  <rect x="500" y="36" width="72" height="40" rx="4" fill="none" stroke="#3d4a5c" stroke-width="1.5"/>
  <rect x="580" y="36" width="52" height="40" rx="4" fill="none" stroke="#3d4a5c" stroke-width="1.5"/>
  <text x="438" y="62" font-size="9" fill="#3d4a5c">CĀ</text>
  <text x="518" y="62" font-size="9" fill="#3d4a5c">Cā</text>
  <text x="596" y="62" font-size="9" fill="#3d4a5c">CÉ</text>
  <path d="M400 56 H420" stroke="#3d4a5c" stroke-width="1.2"/>
  <text x="20" y="175" font-size="9" fill="#3d4a5c" opacity="0.85">Fixed-size blocks (e.g. 128 bits)  unlike stream ciphers that XOR bit-by-bit with a keystream.</text>
  <rect x="20" y="188" width="200" height="24" rx="4" fill="none" stroke="#3d4a5c" stroke-width="1" stroke-dasharray="3 2" opacity="0.6"/>
  <text x="30" y="204" font-size="8" fill="#3d4a5c">Stream cipher: P ē keystream í C (same length)</text>
</svg>
